<svg width="600" height="235" viewBox="0 0 600 235" fill="none" xmlns="http://www.w3.org/2000/svg">
<path d="M514.05 198.189L592.01 63.9589H475.633L459.766 90.2369C459.721 90.6355 459.588 91.0198 459.377 91.3636C459.165 91.7075 458.881 92.0029 458.542 92.2296C458.389 92.4537 458.542 92.7277 458.338 92.9768L454.384 99.8016H524.455L450.43 228.228L446.731 234.031H578.231L595.577 198.363C591.649 198.064 587.159 198.164 585.654 198.164L514.05 198.189Z" fill="#38D4AD"/>
<path d="M298.442 185.744C287.612 197.653 276.217 202.718 261.332 202.718C235.667 202.718 217.702 184.441 215.341 156.787H341.404V152.425C340.994 121.236 334.552 102.633 318.306 86.0363C303.601 71.5953 283.916 63.9737 261.409 63.9737C250.313 63.7637 239.293 65.7903 229.035 69.9271C218.777 74.0639 209.503 80.222 201.79 88.0169C186.879 103.461 178.693 125.323 178.693 149.567C178.693 173.81 186.546 195.046 201.431 210.414C216.316 225.783 236.848 234.031 260.664 234.031C292.745 234.031 319.025 218.462 334.68 190.207L336.733 186.496L335.502 185.794L298.442 185.744ZM260.947 94.0841C283.352 94.0841 299.238 106.419 304.319 127.379H217.908C224.683 105.843 239.774 94.0841 260.947 94.0841Z" fill="#38D4AD"/>
<path d="M358.838 1.45361V174.948C358.838 195.679 363.992 210.628 374.299 219.793C384.607 228.958 398.275 233.541 415.303 233.541C418.999 233.541 423.046 233.345 427.32 233.026L448.765 196.978H417.063C411.775 196.978 406.705 194.931 402.966 191.286C399.227 187.642 397.127 182.699 397.127 177.545V1.45361H358.838Z" fill="#38D4AD"/>
<path d="M120.581 59.598C120.581 59.598 120.574 61.5464 120.581 63.2321V193.33C103.796 194.752 87.2636 194.917 70.4894 193.379H69.9203H69.403C61.4427 192.388 54.1262 188.608 48.8224 182.748C43.5185 176.888 40.5906 169.348 40.5864 161.54L40.678 63.2321C40.6855 61.5464 40.678 61.0516 40.678 59.598H0V150.767C0 169.225 2.50053 183.966 7.50161 194.99C11.6977 205.031 18.6731 213.743 27.6525 220.159C36.4471 226.068 46.5181 229.934 57.09 231.46C68.6565 233.24 80.353 234.099 92.0631 234.027C105.168 234.072 118.247 232.9 131.123 230.529C141.313 228.763 151.378 226.376 161.259 223.381V59.598L120.581 59.598Z" fill="#38D4AD"/>
</svg>
